<?xml version="1.0" encoding="UTF-8"?>
<svg width="351px" height="124px" viewBox="0 0 351 124" version="1.1" xmlns="http://www.w3.org/2000/svg" xmlns:xlink="http://www.w3.org/1999/xlink">
    <!-- Generator: Sketch 64 (93537) - https://sketch.com -->
    <title>Group 10</title>
    <desc>Created with Sketch.</desc>
    <g id="Page-1" stroke="none" stroke-width="1" fill="none" fill-rule="evenodd">
        <g id="Group-10">
            <rect id="Rectangle" fill="#FFFFFF" x="0" y="0" width="351" height="124"></rect>
            <g id="Group-9" transform="translate(30.000000, 42.000000)" fill="#828282" fill-rule="nonzero">
                <path d="M23.14,37.752 L23.14,30.264 L8.112,30.264 L8.112,0.936 L-1.8189894e-12,0.936 L-1.8189894e-12,37.752 L23.14,37.752 Z M45.5,38.688 C48.3773333,38.688 51.0293333,38.2373333 53.456,37.336 C55.8826667,36.4346667 57.98,35.1433333 59.748,33.462 C61.516,31.7806667 62.894,29.744 63.882,27.352 C64.87,24.96 65.364,22.2906667 65.364,19.344 C65.364,16.3973333 64.87,13.728 63.882,11.336 C62.894,8.944 61.516,6.90733333 59.748,5.226 C57.98,3.54466667 55.8826667,2.25333333 53.456,1.352 C51.0293333,0.450666667 48.3773333,0 45.5,0 C42.6226667,0 39.9706667,0.450666667 37.544,1.352 C35.1173333,2.25333333 33.02,3.54466667 31.252,5.226 C29.484,6.90733333 28.106,8.944 27.118,11.336 C26.13,13.728 25.636,16.3973333 25.636,19.344 C25.636,22.2906667 26.13,24.96 27.118,27.352 C28.106,29.744 29.484,31.7806667 31.252,33.462 C33.02,35.1433333 35.1173333,36.4346667 37.544,37.336 C39.9706667,38.2373333 42.6226667,38.688 45.5,38.688 Z M45.5,31.2 C43.7666667,31.2 42.198,30.9053333 40.794,30.316 C39.39,29.7266667 38.1853333,28.9033333 37.18,27.846 C36.1746667,26.7886667 35.4033333,25.5406667 34.866,24.102 C34.3286667,22.6633333 34.06,21.0773333 34.06,19.344 C34.06,17.6453333 34.3286667,16.068 34.866,14.612 C35.4033333,13.156 36.1746667,11.8993333 37.18,10.842 C38.1853333,9.78466667 39.39,8.96133333 40.794,8.372 C42.198,7.78266667 43.7666667,7.488 45.5,7.488 C47.2333333,7.488 48.802,7.78266667 50.206,8.372 C51.61,8.96133333 52.8146667,9.78466667 53.82,10.842 C54.8253333,11.8993333 55.5966667,13.156 56.134,14.612 C56.6713333,16.068 56.94,17.6453333 56.94,19.344 C56.94,21.0773333 56.6713333,22.6633333 56.134,24.102 C55.5966667,25.5406667 54.8253333,26.7886667 53.82,27.846 C52.8146667,28.9033333 51.61,29.7266667 50.206,30.316 C48.802,30.9053333 47.2333333,31.2 45.5,31.2 Z M88.764,38.688 C91.468,38.688 94.12,38.4106667 96.72,37.856 C99.32,37.3013333 101.816,36.4 104.208,35.152 L104.208,35.152 L104.208,15.912 L89.804,15.912 L89.804,23.4 L96.408,23.4 L96.408,29.38 C95.6453333,29.796 94.6226667,30.2033333 93.34,30.602 C92.0573333,31.0006667 90.532,31.2 88.764,31.2 C87.0306667,31.2 85.462,30.9053333 84.058,30.316 C82.654,29.7266667 81.4493333,28.9033333 80.444,27.846 C79.4386667,26.7886667 78.6673333,25.5406667 78.13,24.102 C77.5926667,22.6633333 77.324,21.0773333 77.324,19.344 C77.324,17.6453333 77.5926667,16.068 78.13,14.612 C78.6673333,13.156 79.4386667,11.8993333 80.444,10.842 C81.4493333,9.78466667 82.654,8.96133333 84.058,8.372 C85.462,7.78266667 87.0306667,7.488 88.764,7.488 C90.844,7.488 92.5773333,7.78266667 93.964,8.372 C95.3506667,8.96133333 96.5986667,9.828 97.708,10.972 L97.708,10.972 L103.428,4.732 C101.556,2.99866667 99.3806667,1.77666667 96.902,1.066 C94.4233333,0.355333333 91.7106667,0 88.764,0 C85.8866667,0 83.2346667,0.450666667 80.808,1.352 C78.3813333,2.25333333 76.284,3.54466667 74.516,5.226 C72.748,6.90733333 71.37,8.944 70.382,11.336 C69.394,13.728 68.9,16.3973333 68.9,19.344 C68.9,22.2906667 69.394,24.96 70.382,27.352 C71.37,29.744 72.748,31.7806667 74.516,33.462 C76.284,35.1433333 78.3813333,36.4346667 80.808,37.336 C83.2346667,38.2373333 85.8866667,38.688 88.764,38.688 Z M129.22,38.688 C132.097333,38.688 134.749333,38.2373333 137.176,37.336 C139.602667,36.4346667 141.7,35.1433333 143.468,33.462 C145.236,31.7806667 146.614,29.744 147.602,27.352 C148.59,24.96 149.084,22.2906667 149.084,19.344 C149.084,16.3973333 148.59,13.728 147.602,11.336 C146.614,8.944 145.236,6.90733333 143.468,5.226 C141.7,3.54466667 139.602667,2.25333333 137.176,1.352 C134.749333,0.450666667 132.097333,0 129.22,0 C126.342667,0 123.690667,0.450666667 121.264,1.352 C118.837333,2.25333333 116.74,3.54466667 114.972,5.226 C113.204,6.90733333 111.826,8.944 110.838,11.336 C109.85,13.728 109.356,16.3973333 109.356,19.344 C109.356,22.2906667 109.85,24.96 110.838,27.352 C111.826,29.744 113.204,31.7806667 114.972,33.462 C116.74,35.1433333 118.837333,36.4346667 121.264,37.336 C123.690667,38.2373333 126.342667,38.688 129.22,38.688 Z M129.22,31.2 C127.486667,31.2 125.918,30.9053333 124.514,30.316 C123.11,29.7266667 121.905333,28.9033333 120.9,27.846 C119.894667,26.7886667 119.123333,25.5406667 118.586,24.102 C118.048667,22.6633333 117.78,21.0773333 117.78,19.344 C117.78,17.6453333 118.048667,16.068 118.586,14.612 C119.123333,13.156 119.894667,11.8993333 120.9,10.842 C121.905333,9.78466667 123.11,8.96133333 124.514,8.372 C125.918,7.78266667 127.486667,7.488 129.22,7.488 C130.953333,7.488 132.522,7.78266667 133.926,8.372 C135.33,8.96133333 136.534667,9.78466667 137.54,10.842 C138.545333,11.8993333 139.316667,13.156 139.854,14.612 C140.391333,16.068 140.66,17.6453333 140.66,19.344 C140.66,21.0773333 140.391333,22.6633333 139.854,24.102 C139.316667,25.5406667 138.545333,26.7886667 137.54,27.846 C136.534667,28.9033333 135.33,29.7266667 133.926,30.316 C132.522,30.9053333 130.953333,31.2 129.22,31.2 Z" id="LOGO"></path>
                <path d="M172.42,37.752 L172.42,20.28 L193.012,20.28 L193.012,37.752 L196.444,37.752 L196.444,0.936 L193.012,0.936 L193.012,17.16 L172.42,17.16 L172.42,0.936 L168.988,0.936 L168.988,37.752 L172.42,37.752 Z M229.88,37.752 L229.88,34.632 L209.964,34.632 L209.964,20.28 L227.852,20.28 L227.852,17.16 L209.964,17.16 L209.964,4.056 L229.048,4.056 L229.048,0.936 L206.532,0.936 L206.532,37.752 L229.88,37.752 Z M240.8,37.752 L240.8,20.28 L247.196,20.28 L257.544,37.752 L261.444,37.752 L250.732,20.072 C251.737333,19.9333333 252.794667,19.6906667 253.904,19.344 C255.013333,18.9973333 256.027333,18.4686667 256.946,17.758 C257.864667,17.0473333 258.627333,16.12 259.234,14.976 C259.840667,13.832 260.144,12.376 260.144,10.608 C260.144,9.01333333 259.884,7.66133333 259.364,6.552 C258.844,5.44266667 258.185333,4.524 257.388,3.796 C256.590667,3.068 255.689333,2.51333333 254.684,2.132 C253.678667,1.75066667 252.690667,1.47333333 251.72,1.3 C250.749333,1.12666667 249.848,1.02266667 249.016,0.988 C248.184,0.953333333 247.525333,0.936 247.04,0.936 L247.04,0.936 L237.368,0.936 L237.368,37.752 L240.8,37.752 Z M248.08,17.16 L240.8,17.16 L240.8,4.056 L248.08,4.056 C249.882667,4.056 251.347333,4.28133333 252.474,4.732 C253.600667,5.18266667 254.476,5.73733333 255.1,6.396 C255.724,7.05466667 256.148667,7.76533333 256.374,8.528 C256.599333,9.29066667 256.712,9.984 256.712,10.608 C256.712,11.232 256.599333,11.9253333 256.374,12.688 C256.148667,13.4506667 255.724,14.1613333 255.1,14.82 C254.476,15.4786667 253.600667,16.0333333 252.474,16.484 C251.347333,16.9346667 249.882667,17.16 248.08,17.16 L248.08,17.16 Z M291.552,37.752 L291.552,34.632 L271.636,34.632 L271.636,20.28 L289.524,20.28 L289.524,17.16 L271.636,17.16 L271.636,4.056 L290.72,4.056 L290.72,0.936 L268.204,0.936 L268.204,37.752 L291.552,37.752 Z" id="HERE"></path>
            </g>
        </g>
    </g>
</svg>