<svg id="Livello_1" data-name="Livello 1" xmlns="http://www.w3.org/2000/svg" xmlns:xlink="http://www.w3.org/1999/xlink" viewBox="0 0 242 64.63">
  <defs>
    <style>
      .cls-1, .cls-15, .cls-17 {
        fill: none;
      }

      .cls-2 {
        clip-path: url(#clip-path);
      }

      .cls-3 {
        fill: #fff;
      }

      .cls-4 {
        clip-path: url(#clip-path-3);
      }

      .cls-5 {
        clip-path: url(#clip-path-4);
      }

      .cls-6 {
        clip-path: url(#clip-path-5);
      }

      .cls-7 {
        fill: #efa246;
      }

      .cls-8 {
        fill: #feebbe;
      }

      .cls-9 {
        fill: #fef3da;
      }

      .cls-10 {
        fill: #020202;
      }

      .cls-11 {
        fill: #010101;
      }

      .cls-12 {
        fill: #020201;
      }

      .cls-13 {
        clip-path: url(#clip-path-6);
      }

      .cls-14 {
        fill: #fff4db;
      }

      .cls-15 {
        stroke: #d6812b;
        stroke-width: 0.76px;
      }

      .cls-16 {
        fill: #d6812b;
      }

      .cls-17 {
        stroke: #fcedda;
        stroke-width: 0.72px;
      }

      .cls-18 {
        clip-path: url(#clip-path-10);
      }

      .cls-19 {
        clip-path: url(#clip-path-11);
      }

      .cls-20 {
        fill: #fefefe;
      }

      .cls-21 {
        fill: #141414;
      }

      .cls-22 {
        fill: #212121;
      }

      .cls-23 {
        fill: #484848;
      }

      .cls-24 {
        fill: #86cdd8;
      }

      .cls-25 {
        fill: #4397d0;
      }

      .cls-26 {
        fill: #3689c1;
      }

      .cls-27 {
        fill: #d3d3d1;
      }

      .cls-28 {
        fill: #2a83c0;
      }

      .cls-29 {
        fill: #286395;
      }

      .cls-30 {
        fill: #c2c2c0;
      }

      .cls-31 {
        fill: #000101;
      }

      .cls-32 {
        fill: #010202;
      }

      .cls-33 {
        fill: #e1e1df;
      }

      .cls-34 {
        fill: #e2e2e0;
      }
    </style>
    <clipPath id="clip-path" transform="translate(0 0.00001)">
      <rect class="cls-1" y="-0.00001" width="242" height="64.63"/>
    </clipPath>
    <clipPath id="clip-path-3" transform="translate(0 0.00001)">
      <rect class="cls-1" y="-0.00001" width="242" height="63.91"/>
    </clipPath>
    <clipPath id="clip-path-4" transform="translate(0 0.00001)">
      <rect class="cls-1" x="8.2586" y="14.72268" width="40.21" height="40.93" transform="translate(-16.29163 42.15744) rotate(-60)"/>
    </clipPath>
    <clipPath id="clip-path-5" transform="translate(0 0.00001)">
      <rect class="cls-1" x="8.2586" y="15.08268" width="40.21" height="40.21" transform="translate(-16.29163 42.15744) rotate(-60)"/>
    </clipPath>
    <clipPath id="clip-path-6" transform="translate(0 0.00001)">
      <rect class="cls-1" x="25.13" y="24.41999" width="215.43" height="29.44"/>
    </clipPath>
    <clipPath id="clip-path-10" transform="translate(0 0.00001)">
      <rect class="cls-1" x="97.3" y="-0.00001" width="24.42" height="24.42"/>
    </clipPath>
    <clipPath id="clip-path-11" transform="translate(0 0.00001)">
      <rect class="cls-1" x="97.66" y="0.35999" width="24.06" height="24.06"/>
    </clipPath>
  </defs>
  <g class="cls-2">
    <rect class="cls-3" width="242" height="64.63"/>
  </g>
  <g class="cls-2">
    <g class="cls-4">
      <g class="cls-5">
        <g class="cls-6">
          <g>
            <path d="M31.66,60.28,4.85,44.8a4.46,4.46,0,0,1-1.74-2.43,5,5,0,0,1,.32-3.95,25.89,25.89,0,0,1,1.94-2.84c.87-1.24,1.76-2.46,2.64-3.69,1-1.43,2.05-2.87,3.07-4.3s2.06-2.86,3.08-4.3c.49-.7,1-1.4,1.5-2.09a.67.67,0,0,0,.14-.69A6.71991,6.71991,0,0,1,15.55,18,5.49023,5.49023,0,0,1,16,16.46l.79-1.36a5.53,5.53,0,0,1,3.1-2.1,10.61013,10.61013,0,0,1,3.41-.37.67.67,0,0,1,.65.83.78.78,0,0,1-.89.55,9.71033,9.71033,0,0,0-2.79.35,4.36,4.36,0,0,0-3.26379,5.23134q.02432.105.05379.20867c.06.25.13.51.21.76a1.15,1.15,0,0,1-.18,1.07c-.86,1.16-1.7,2.34-2.54,3.52L12,28.75,8.93,33c-.87,1.22-1.76,2.43-2.62,3.66-.51.74-1.09,1.43-1.54,2.22a3.66,3.66,0,0,0-.48,1.38,3.94,3.94,0,0,0,.09,1.45A3.66,3.66,0,0,0,5,43.05a3.87991,3.87991,0,0,0,1.08,1l.17.1L31.61,58.77a3.92,3.92,0,0,0,2.51.5,3.58993,3.58993,0,0,0,1.23-.38,3.74991,3.74991,0,0,0,1-.77,4.12991,4.12991,0,0,0,.81-1.29l2.59-5.7,2.47-5.46c.83-1.82,1.66-3.66,2.5-5.49.28-.63.59-1.25.85-1.89a1.3,1.3,0,0,1,1-.88,5.33991,5.33991,0,0,0,2.28-1,4.24,4.24,0,0,0,1.53-4.52,11.54,11.54,0,0,0-2.79-5.06,32.59013,32.59013,0,0,0-6-5.4,49.52171,49.52171,0,0,0-5.28-3.29,35.82045,35.82045,0,0,0-9.82-3.73c-.65-.13-.81-.3-.86-.82.18-.56.42-.71,1-.58a32.68092,32.68092,0,0,1,4.93,1.43,35.43146,35.43146,0,0,1,4.68,2.17c1.15.65,2.3,1.3,3.44,2a34.11036,34.11036,0,0,1,8.54,6.92,16.4103,16.4103,0,0,1,3,4.6,6.55007,6.55007,0,0,1,.57,3.59,5.71,5.71,0,0,1-4,4.82c-1,.33-1,.32-1.4,1.3C45.76,41.4,45,43,44.33,44.53s-1.47,3.23-2.2,4.85L40,54c-.51,1.13-1.06,2.24-1.53,3.39a5.3,5.3,0,0,1-5.19,3.33A4.51018,4.51018,0,0,1,31.66,60.28Z" transform="translate(0 0.00001)"/>
            <path class="cls-7" d="M23.9,13.35a10.741,10.741,0,0,1,1.87.23c0,.44.27.63.68.71a34.64032,34.64032,0,0,1,9,3.26,48.36033,48.36033,0,0,1,7.09,4.39,27.56,27.56,0,0,1,6.69,6.85,9.25992,9.25992,0,0,1,1.34,3.11,4.48,4.48,0,0,1-3.13,5.43,4.69029,4.69029,0,0,1-.84.21,1,1,0,0,0-.8.65c-1.15,2.57-2.32,5.14-3.48,7.71l-3.51,7.69c-.49,1.1-1,2.19-1.47,3.29a3.94,3.94,0,0,1-5.84,1.94L6.17,44.21a3.92,3.92,0,0,1-1.79-4.78A7.65029,7.65029,0,0,1,5.51,37.6q2.28-3.21,4.58-6.4L15,24.33c.66-.92,1.31-1.85,2-2.77a1,1,0,0,0,.14-1,5,5,0,0,1,.07-3.85,4.65,4.65,0,0,1,3.27-2.51,9.07031,9.07031,0,0,1,2.59-.28.69.69,0,0,0,.82185-.52609Q23.89664,13.37209,23.9,13.35Z" transform="translate(0 0.00001)"/>
            <path d="M37.78,51.42c.4.36.44.5.22,1l-2,4.34A2.67,2.67,0,0,1,32.51,58l-.38-.2L6.85,43.18a2.69,2.69,0,0,1-1.41-3.09,4.00014,4.00014,0,0,1,.73-1.33L12,30.59c1.81-2.52,3.6-5,5.4-7.56.36-.51.72-1,1.1-1.52a.48.48,0,0,0,.07-.59A5.52,5.52,0,0,1,18.05,19,3.11,3.11,0,0,1,20,15.65a7.78,7.78,0,0,1,3.88-.5,24.6903,24.6903,0,0,1,6.67,1.59,42.91087,42.91087,0,0,1,8.08,4,33.45992,33.45992,0,0,1,8.57,7.29,10.26011,10.26011,0,0,1,2.08,3.82,3.3,3.3,0,0,1-2.45,4.35,6.37961,6.37961,0,0,1-1.35.24.36.36,0,0,0-.38.27l-5.43,12c-.08.18-.17.35-.25.53-.25.57-.48.66-1,.37-.33-.12-.3-.38-.23-.64a7.91058,7.91058,0,0,1,.49-1.16c1.06-2.31,2.1-4.62,3.16-6.94.72-1.57,1.46-3.15,2.13-4.74a1.35,1.35,0,0,1,1.36-1,3.50987,3.50987,0,0,0,1.84-.47,1.87,1.87,0,0,0,1-1.93,5.43991,5.43991,0,0,0-.86-2.33,21.33986,21.33986,0,0,0-5-5.51,37.18716,37.18716,0,0,0-3.24-2.4A42.46079,42.46079,0,0,0,34.85,20,31.00013,31.00013,0,0,0,24.5,16.52a8.82011,8.82011,0,0,0-3.47.11,2.09,2.09,0,0,0-1.61,2.78,5.86015,5.86015,0,0,0,.52,1.31.93.93,0,0,1,0,1.07c-.52.81-1.12,1.57-1.67,2.36q-1.55,2.18-3.1,4.33L11.6,33.41C10.43,35,9.27,36.65,8.11,38.28L7,39.85A1.37,1.37,0,0,0,7.48,42L31.37,55.81l.17.1c.48.29,1,.57,1.45.84a1.36,1.36,0,0,0,.53.16,1.32988,1.32988,0,0,0,.56-.06,1.46992,1.46992,0,0,0,.48-.29,1.39,1.39,0,0,0,.33-.46c.58-1.26,1.16-2.53,1.72-3.8a3.36058,3.36058,0,0,1,.41-.71.52.52,0,0,1,.76-.17Z" transform="translate(0 0.00001)"/>
            <path class="cls-8" d="M37.78,51.42a.68.68,0,0,0-.84622.45686L36.93,51.89c-.62,1.42-1.28,2.82-1.92,4.23a1.48,1.48,0,0,1-2.07.76c-.49-.27-1-.57-1.45-.85,0-.13.13-.17.22-.21a2.54,2.54,0,0,0,1.18-1.4c.6-1.35,1.21-2.69,1.82-4L36.23,47c.63-1.36,1.24-2.73,1.86-4.09.48-1,.95-2.09,1.42-3.14l1.83-4c.15-.35.33-.69.47-1a.78.78,0,0,1,.8-.55,5.00014,5.00014,0,0,0,1.75-.37A2.5,2.5,0,0,0,46,31a7.15006,7.15006,0,0,0-1.07-2.67,18.00034,18.00034,0,0,0-2.38-3c-.11-.12-.32-.21-.22-.45a23.00058,23.00058,0,0,1,3.48,3.36A11.62029,11.62029,0,0,1,48,31.58c.8,2,.08,3.31-2.07,3.66a5.28059,5.28059,0,0,1-.9.09.75993.75993,0,0,0-.46.12.68993.68993,0,0,0-.29.38C43.61,37.21,43,38.58,42.35,40q-1.43,3.12-2.83,6.24c-.41.91-.81,1.81-1.23,2.71a.59.59,0,0,0,.1.72c.16.17.09.35,0,.53C38.2,50.58,38,51,37.78,51.42Z" transform="translate(0 0.00001)"/>
            <path class="cls-9" d="M42.32,24.89l1.3,1.49a12.64,12.64,0,0,1,2.06,3.16,4.53988,4.53988,0,0,1,.45,2.08A2.59,2.59,0,0,1,44.37,34a6.1902,6.1902,0,0,1-1.94.38.45.45,0,0,0-.47.36c-.24.61-.55,1.2-.82,1.8-.39.86-.77,1.73-1.16,2.59-.26.59-.55,1.18-.81,1.77-.41.89-.81,1.79-1.21,2.69s-.74,1.6-1.1,2.4-.81,1.8-1.21,2.69l-.78,1.7c-.4.89-.78,1.81-1.21,2.68-.36.72-.62,1.49-1,2.18A2.31994,2.31994,0,0,1,31.5,56l-.28-.14L7.42,42.15A1.54,1.54,0,0,1,6.8,39.9c.3-.41.59-.83.88-1.24q3.27-4.54,6.52-9.1c1.8-2.5,3.58-5,5.4-7.5a1.17,1.17,0,0,0,.15-1.48,3.76988,3.76988,0,0,1-.54-1.78,2,2,0,0,1,1.16-2,6,6,0,0,1,3-.46,21.35021,21.35021,0,0,1,6.31,1.38,43.37011,43.37011,0,0,1,9.79,5A23.32138,23.32138,0,0,1,42.32,24.89Z" transform="translate(0 0.00001)"/>
            <path class="cls-10" d="M33.05,30a.57.57,0,0,1-.20961-.77837L32.86,29.19a.49.49,0,0,1,.34-.27.55.55,0,0,1,.43.06.6.6,0,0,1-.13,1.07A.54.54,0,0,1,33.05,30Z" transform="translate(0 0.00001)"/>
            <path class="cls-10" d="M42.37,31a.58.58,0,0,1-.28-.35.6.6,0,0,1,.82-.69.59.59,0,0,1-.54,1Z" transform="translate(0 0.00001)"/>
            <path class="cls-11" d="M35.71,40a.51.51,0,0,1-.33.28.52.52,0,0,1-.44,0,.54.54,0,0,1-.28-.36.55.55,0,0,1,.08-.45.54.54,0,0,1,.34-.27.49.49,0,0,1,.44.07.53.53,0,0,1,.19344.72414Z" transform="translate(0 0.00001)"/>
            <path class="cls-11" d="M23.09,41.91a.58.58,0,0,1-.26-.35.57.57,0,0,1,.07-.44.54.54,0,0,1,.35-.29.54994.54994,0,0,1,.45.08.54.54,0,0,1,.19709.7378q-.01255.02172-.02709.0422a.56.56,0,0,1-.34.28A.57.57,0,0,1,23.09,41.91Z" transform="translate(0 0.00001)"/>
            <path class="cls-10" d="M33.15,51.27a.53.53,0,0,1,.22.76.57.57,0,0,1-.75717.27657L32.58,52.29a.51.51,0,0,1-.27-.34.6.6,0,0,1,.84-.68Z" transform="translate(0 0.00001)"/>
            <path class="cls-10" d="M12.79,40.94a.49.49,0,0,1-.27-.34.47.47,0,0,1,.06-.43.56588.56588,0,1,1,1,.53h0a.56.56,0,0,1-.33.29A.53.53,0,0,1,12.79,40.94Z" transform="translate(0 0.00001)"/>
            <path class="cls-10" d="M25.43,21a.5.5,0,0,1-.34.29.51.51,0,0,1-.45-.06.56.56,0,0,1-.27-.35.59.59,0,0,1,.07-.45.55.55,0,0,1,.36-.27.57.57,0,0,1,.44.07.53.53,0,0,1,.19.77Z" transform="translate(0 0.00001)"/>
            <path class="cls-12" d="M21,30.92a.47.47,0,0,1-.32.28.52006.52006,0,0,1-.44,0,.58.58,0,0,1-.26-.35.59.59,0,0,1,.05-.43.56.56,0,0,1,1,.1A.49.49,0,0,1,21,30.92Z" transform="translate(0 0.00001)"/>
          </g>
        </g>
      </g>
    </g>
  </g>
  <g class="cls-13">
    <g>
      <path class="cls-14" d="M34.82,42.62c-1.91,0-2.17.44-2.34,2.27-.12,1.28-.61,1.82.84,1.85s3.57-1.66,3.5-2.64C36.72,42.86,35.88,42.59,34.82,42.62ZM32,33.13c.13.95.15,1.83.34,2.69.22,1,.42,1.28,1.32.76a9.89,9.89,0,0,0,3.68-3.47c.29-.49.63-1,.1-1.54A5,5,0,0,0,33,30.52C31.51,30.75,31.93,31.9,32,33.13ZM25.86,28.4c4.75-2.54,9.71-3,14.56-.65,3.79,1.84,4.13,5.79.95,9.24-1.26,1.37-1.37,1.95.09,3.3,3.28,3.05,2.36,8-1.78,10.4-2.26,1.34-4.77,1.68-7.38,2.24a12.48957,12.48957,0,0,1-1.49.24c-1.6.21-3.95.65-4.77-.17s-.18-3.12-.18-4.77Z" transform="translate(0 0.00001)"/>
      <path class="cls-15" d="M34.82,42.62c-1.91,0-2.17.44-2.34,2.27-.12,1.28-.61,1.82.84,1.85s3.57-1.66,3.5-2.64C36.72,42.86,35.88,42.59,34.82,42.62ZM32,33.13c.13.95.15,1.83.34,2.69.22,1,.42,1.28,1.32.76a9.89,9.89,0,0,0,3.68-3.47c.29-.49.63-1,.1-1.54A5,5,0,0,0,33,30.52C31.51,30.75,31.93,31.9,32,33.13ZM25.86,28.4c4.75-2.54,9.71-3,14.56-.65,3.79,1.84,4.13,5.79.95,9.24-1.26,1.37-1.37,1.95.09,3.3,3.28,3.05,2.36,8-1.78,10.4-2.26,1.34-4.77,1.68-7.38,2.24a12.48957,12.48957,0,0,1-1.49.24c-1.6.21-3.95.65-4.77-.17s-.18-3.12-.18-4.77Z" transform="translate(0 0.00001)"/>
      <path class="cls-14" d="M239.34608,49c-2,3.91-8.56,4-11.47,2.54-3.32179-1.31333-1.45553-5.77846,1.74024-5.46964.87977-.10036,2.09977.75964,2.58976-.34036.31758-1.80123-2.187-3.11375-3.22952-4.42026-5.6316-4.969-1.47277-12.8499,3.86674-15.55974h1.81134c2.24356,1.12231,5.79531,4.81251,3.52167,7-1.82055,1.69514-4.51285-2.81167-5.18023.83015C232.08933,39.90479,241.05133,40.56932,239.34608,49Z" transform="translate(0 0.00001)"/>
      <path class="cls-15" d="M239.80412,49.09853c-1.90793,4.08822-9.018,3.90146-11.928,2.44146-3.32179-1.31333-1.45553-5.77846,1.74024-5.46964.87977-.10036,2.09977.75964,2.58976-.34036.31758-1.80123-2.187-3.11375-3.22952-4.42026-5.6316-4.969-1.47277-12.8499,3.86674-15.55974l.58969-.30353c2.927.817,7.017,5.116,4.74332,7.30355-1.82055,1.69514-4.51285-2.81167-5.18023.83015C232.08933,39.90479,241.70619,41.55987,239.80412,49.09853Z" transform="translate(0 0.00001)"/>
      <path class="cls-14" d="M197,38.1c-2.91,1.86-4.79,6.92-9.59,2.77a10.86013,10.86013,0,0,0-.1,4.27,10.39053,10.39053,0,0,1,.07,2.67c-.3,1.95-1.3,2.9-2.94,2.83a3,3,0,0,1-3.00239-2.99759q0-.06123.00239-.12241c.6-5-.69-10-.54-15a15.69943,15.69943,0,0,1,.29-2.26c.21-1.33.76-2.48,2.2-2.8A3.1,3.1,0,0,1,186.68,29c1.14,1.53,2.19,3.11,3.17,4.74.74,1.26,1.37,1.53,2.35.29,1.29-1.64,2.63-3.25,4-4.87a16.79089,16.79089,0,0,1,1.75-2,3,3,0,0,1,4.9.93,6.24993,6.24993,0,0,1,.78,3.11c0,5.13.23,10.29-.35,15.4-.26,2.32-1.38,3.63-3.15,3.61s-3.13-1.53-3.17-3.81a38.90975,38.90975,0,0,1,.25-6.65A2,2,0,0,0,197,38.1Z" transform="translate(0 0.00001)"/>
      <path class="cls-15" d="M197,38.1c-2.91,1.86-4.79,6.92-9.59,2.77a10.86013,10.86013,0,0,0-.1,4.27,10.39053,10.39053,0,0,1,.07,2.67c-.3,1.95-1.3,2.9-2.94,2.83a3,3,0,0,1-3.00239-2.99759q0-.06123.00239-.12241c.6-5-.69-10-.54-15a15.69943,15.69943,0,0,1,.29-2.26c.21-1.33.76-2.48,2.2-2.8A3.1,3.1,0,0,1,186.68,29c1.14,1.53,2.19,3.11,3.17,4.74.74,1.26,1.37,1.53,2.35.29,1.29-1.64,2.63-3.25,4-4.87a16.79089,16.79089,0,0,1,1.75-2,3,3,0,0,1,4.9.93,6.24993,6.24993,0,0,1,.78,3.11c0,5.13.23,10.29-.35,15.4-.26,2.32-1.38,3.63-3.15,3.61s-3.13-1.53-3.17-3.81a38.90975,38.90975,0,0,1,.25-6.65A2,2,0,0,0,197,38.1Z" transform="translate(0 0.00001)"/>
      <path class="cls-14" d="M58.08,36.19c-.06-1.92-2.56-3.26-4.26-3.39-.86-.06-.41-.22-.76,1.91-.24,1.52-.92,3.51.76,4.52s4.33-1,4.26-3ZM59,44.06c1.32,1,2.44,1.84,3.5,2.74a1.83,1.83,0,0,1,.62,2.2A2.16,2.16,0,0,1,61,50.25a4.29992,4.29992,0,0,1-2.5-.8c-1.82-1.14-3.64-2.28-5.56-3.51-.45.77-.2,1.56-.32,2.29-.35,2.07-1.79,3.57-3.41,3.5s-3-1.64-3.23-3.68c-.73-5.77-.07-11.53,0-17.3a2.51,2.51,0,0,1,2.12-2.56,20.39991,20.39991,0,0,1,9.41-.47c3.63.77,5.86,3.27,6.48,7.09a8.18019,8.18019,0,0,1,.08,2.47,7.92,7.92,0,0,1-.67,2.37,8.10148,8.10148,0,0,1-3.22,3.66Z" transform="translate(0 0.00001)"/>
      <path class="cls-15" d="M58.08,36.19c-.06-1.92-2.56-3.26-4.26-3.39-.86-.06-.41-.22-.76,1.91-.24,1.52-.92,3.51.76,4.52s4.33-1,4.26-3ZM59,44.06c1.32,1,2.44,1.84,3.5,2.74a1.83,1.83,0,0,1,.62,2.2A2.16,2.16,0,0,1,61,50.25a4.29992,4.29992,0,0,1-2.5-.8c-1.82-1.14-3.64-2.28-5.56-3.51-.45.77-.2,1.56-.32,2.29-.35,2.07-1.79,3.57-3.41,3.5s-3-1.64-3.23-3.68c-.73-5.77-.07-11.53,0-17.3a2.51,2.51,0,0,1,2.12-2.56,20.39991,20.39991,0,0,1,9.41-.47c3.63.77,5.86,3.27,6.48,7.09a8.18019,8.18019,0,0,1,.08,2.47,7.92,7.92,0,0,1-.67,2.37,8.10148,8.10148,0,0,1-3.22,3.66Z" transform="translate(0 0.00001)"/>
      <path class="cls-14" d="M114.56,40.13a15.08976,15.08976,0,0,0-.8-5,3.37,3.37,0,0,0-3.25-2.44c-1.64-.14-2.32.35-2.21,2.1.21,3.34.27,6.69.35,10,0,1.21.61,1.51,1.7,1.41,2.9-.24,4.2-2.09,4.21-6.06Zm-12.2-.47c.14-2.95-.07-6.25.34-9.53a2.71,2.71,0,0,1,2.46-2.67,18.35994,18.35994,0,0,1,7.74.12,7.6,7.6,0,0,1,6,6,32.12956,32.12956,0,0,1,.86,9.82,8.55,8.55,0,0,1-7.77,8,18.75,18.75,0,0,1-6.25.15c-2.44-.52-3.3-1.61-3.33-4.12S102.36,42.5,102.36,39.66Z" transform="translate(0 0.00001)"/>
      <path class="cls-15" d="M114.56,40.13a15.08976,15.08976,0,0,0-.8-5,3.37,3.37,0,0,0-3.25-2.44c-1.64-.14-2.32.35-2.21,2.1.21,3.34.27,6.69.35,10,0,1.21.61,1.51,1.7,1.41,2.9-.24,4.2-2.09,4.21-6.06Zm-12.2-.47c.14-2.95-.07-6.25.34-9.53a2.71,2.71,0,0,1,2.46-2.67,18.35994,18.35994,0,0,1,7.74.12,7.6,7.6,0,0,1,6,6,32.12956,32.12956,0,0,1,.86,9.82,8.55,8.55,0,0,1-7.77,8,18.75,18.75,0,0,1-6.25.15c-2.44-.52-3.3-1.61-3.33-4.12S102.36,42.5,102.36,39.66Z" transform="translate(0 0.00001)"/>
      <path class="cls-14" d="M166.6,35.36a31.56953,31.56953,0,0,0,.45,7.39c.27,1.15.34,2.61,1.94,2.67s2-1.24,2.29-2.41c.84-2.87.57-5.78.28-8.69a19.8995,19.8995,0,0,1-.26-5.11,3.3,3.3,0,0,1,3-3.14,3.13,3.13,0,0,1,3.49,2.6,26.82,26.82,0,0,1-1.24,17.69,8.49,8.49,0,0,1-9.09,4.83c-3.9-.84-6-3.55-6.48-7.88a47.70077,47.70077,0,0,1,.05-11.39,11.56025,11.56025,0,0,1,.62-2.77,2.47,2.47,0,0,1,4.88.69C166.65,31.66,166.6,33.52,166.6,35.36Z" transform="translate(0 0.00001)"/>
      <path class="cls-15" d="M166.6,35.36a31.56953,31.56953,0,0,0,.45,7.39c.27,1.15.34,2.61,1.94,2.67s2-1.24,2.29-2.41c.84-2.87.57-5.78.28-8.69a19.8995,19.8995,0,0,1-.26-5.11,3.3,3.3,0,0,1,3-3.14,3.13,3.13,0,0,1,3.49,2.6,26.82,26.82,0,0,1-1.24,17.69,8.49,8.49,0,0,1-9.09,4.83c-3.9-.84-6-3.55-6.48-7.88a47.70077,47.70077,0,0,1,.05-11.39,11.56025,11.56025,0,0,1,.62-2.77,2.47,2.47,0,0,1,4.88.69C166.65,31.66,166.6,33.52,166.6,35.36Z" transform="translate(0 0.00001)"/>
      <path class="cls-14" d="M90.86,33.56a40.06094,40.06094,0,0,0-2.43,7.06c-.87,3.39-.88,3.33,2.59,3,1.19-.12,1.57-.61,1.38-1.7C91.92,39.28,91.44,36.66,90.86,33.56ZM82.19,48.91c.56-6.45,1.5-12.84,4-18.89,1.14-2.75,2.61-3.73,5.36-3.65a4.87,4.87,0,0,1,5.1,4C98,35.22,99.08,40.11,100.22,45a6.08,6.08,0,0,1,0,2.29c-.22,1.52-.84,2.86-2.49,3.24a2.88009,2.88009,0,0,1-1,.08,3.00007,3.00007,0,0,1-1-.27,3.06007,3.06007,0,0,1-.88-.58,3.28992,3.28992,0,0,1-.63-.85c-1.53-2.61-3.85-1-5.8-1.22-1.65-.16-2,1.25-2.34,2.49a5.41035,5.41035,0,0,1-.64,1.38,1.57,1.57,0,0,1-.74.72,1.72,1.72,0,0,1-2-.39,1.67005,1.67005,0,0,1-.43-1A10.28546,10.28546,0,0,1,82.19,48.91Z" transform="translate(0 0.00001)"/>
      <path class="cls-15" d="M90.86,33.56a40.06094,40.06094,0,0,0-2.43,7.06c-.87,3.39-.88,3.33,2.59,3,1.19-.12,1.57-.61,1.38-1.7C91.92,39.28,91.44,36.66,90.86,33.56ZM82.19,48.91c.56-6.45,1.5-12.84,4-18.89,1.14-2.75,2.61-3.73,5.36-3.65a4.87,4.87,0,0,1,5.1,4C98,35.22,99.08,40.11,100.22,45a6.08,6.08,0,0,1,0,2.29c-.22,1.52-.84,2.86-2.49,3.24a2.88009,2.88009,0,0,1-1,.08,3.00007,3.00007,0,0,1-1-.27,3.06007,3.06007,0,0,1-.88-.58,3.28992,3.28992,0,0,1-.63-.85c-1.53-2.61-3.85-1-5.8-1.22-1.65-.16-2,1.25-2.34,2.49a5.41035,5.41035,0,0,1-.64,1.38,1.57,1.57,0,0,1-.74.72,1.72,1.72,0,0,1-2-.39,1.67005,1.67005,0,0,1-.43-1A10.28546,10.28546,0,0,1,82.19,48.91Z" transform="translate(0 0.00001)"/>
      <path class="cls-14" d="M66.91,37.7V30.27c0-2.18,1-3.37,3.17-3.43a46.50074,46.50074,0,0,1,8.17.3c.93.15,1.79.44,1.9,1.52a2.29,2.29,0,0,1-1.45,2.43c-1.63.77-3.37.53-5.06.34-1.37-.17-1.62.27-1.48,1.54a43.00087,43.00087,0,0,1,.23,5.32c0,1.36.44,2,1.89,1.86a12.00043,12.00043,0,0,1,2.08,0c.9.05,1.65.43,1.75,1.42s-.7,1.55-1.64,1.72a6.99936,6.99936,0,0,1-1.71.11c-1.47-.09-2,.54-2,2s.85,1.6,2,1.55a14.99991,14.99991,0,0,1,2.84,0,2.22,2.22,0,0,1,2.06,2.15,1.91992,1.91992,0,0,1,0,.86,2.1,2.1,0,0,1-.38.78,2.22982,2.22982,0,0,1-.65.57,2.4,2.4,0,0,1-.82.27c-2.56.38-5.15.78-7.74.13a3.47,3.47,0,0,1-2.76-3.22A90.90879,90.90879,0,0,1,66.91,37.7Z" transform="translate(0 0.00001)"/>
      <path class="cls-15" d="M66.91,37.7V30.27c0-2.18,1-3.37,3.17-3.43a46.50074,46.50074,0,0,1,8.17.3c.93.15,1.79.44,1.9,1.52a2.29,2.29,0,0,1-1.45,2.43c-1.63.77-3.37.53-5.06.34-1.37-.17-1.62.27-1.48,1.54a43.00087,43.00087,0,0,1,.23,5.32c0,1.36.44,2,1.89,1.86a12.00043,12.00043,0,0,1,2.08,0c.9.05,1.65.43,1.75,1.42s-.7,1.55-1.64,1.72a6.99936,6.99936,0,0,1-1.71.11c-1.47-.09-2,.54-2,2s.85,1.6,2,1.55a14.99991,14.99991,0,0,1,2.84,0,2.22,2.22,0,0,1,2.06,2.15,1.91992,1.91992,0,0,1,0,.86,2.1,2.1,0,0,1-.38.78,2.22982,2.22982,0,0,1-.65.57,2.4,2.4,0,0,1-.82.27c-2.56.38-5.15.78-7.74.13a3.47,3.47,0,0,1-2.76-3.22A90.90879,90.90879,0,0,1,66.91,37.7Z" transform="translate(0 0.00001)"/>
      <path class="cls-14" d="M122.19,40.37a16.47992,16.47992,0,0,1,1-4.86,16.86028,16.86028,0,0,1,2.35-4.36c2.63-3.49,7.51-4.57,10.82-2.48a3.47,3.47,0,0,1,1.19,1.06,3.52,3.52,0,0,1,.62,1.48,2.07016,2.07016,0,0,1-.07,1.13,2.1299,2.1299,0,0,1-.65.92,1.82,1.82,0,0,1-2.12.16c-2.57-1.15-3.66-.82-5.3,1.42a11.24,11.24,0,0,0-2.24,6.73,4.24,4.24,0,0,0,2.18,4c1.37.76,2.67.24,3.9-.62s2.71-1.64,3.81,0,.1,2.82-1.11,3.78A8.78,8.78,0,0,1,127.42,50C124.19,48.73,122.18,45.27,122.19,40.37Z" transform="translate(0 0.00001)"/>
      <path class="cls-15" d="M122.19,40.37a16.47992,16.47992,0,0,1,1-4.86,16.86028,16.86028,0,0,1,2.35-4.36c2.63-3.49,7.51-4.57,10.82-2.48a3.47,3.47,0,0,1,1.19,1.06,3.52,3.52,0,0,1,.62,1.48,2.07016,2.07016,0,0,1-.07,1.13,2.1299,2.1299,0,0,1-.65.92,1.82,1.82,0,0,1-2.12.16c-2.57-1.15-3.66-.82-5.3,1.42a11.24,11.24,0,0,0-2.24,6.73,4.24,4.24,0,0,0,2.18,4c1.37.76,2.67.24,3.9-.62s2.71-1.64,3.81,0,.1,2.82-1.11,3.78A8.78,8.78,0,0,1,127.42,50C124.19,48.73,122.18,45.27,122.19,40.37Z" transform="translate(0 0.00001)"/>
      <path class="cls-14" d="M215.53,41.19c-1.9,0-2.16.43-2.33,2.27-.12,1.28-.62,1.81.83,1.84s3.58-1.66,3.5-2.64C217.43,41.44,216.59,41.16,215.53,41.19Zm-2.8-9.49c.13.95.15,1.84.33,2.69.22,1,.42,1.28,1.33.76a9.83,9.83,0,0,0,3.67-3.46c.3-.5.63-1.05.11-1.55a5,5,0,0,0-4.43-1.05C212.24,29.32,212.66,30.48,212.73,31.7ZM206.57,27c4.75-2.56,9.71-3,14.56-.66,3.81,1.83,4.14,5.78,1,9.24-1.26,1.37-1.36,1.95.09,3.3,3.29,3,2.36,8-1.78,10.4C218.13,50.6,215.63,51,213,51.5a12.65949,12.65949,0,0,1-1.48.24c-1.61.2-3.95.65-4.78-.18s-.18-3.12-.18-4.77Z" transform="translate(0 0.00001)"/>
      <path class="cls-15" d="M215.53,41.19c-1.9,0-2.16.43-2.33,2.27-.12,1.28-.62,1.81.83,1.84s3.58-1.66,3.5-2.64C217.43,41.44,216.59,41.16,215.53,41.19Zm-2.8-9.49c.13.95.15,1.84.33,2.69.22,1,.42,1.28,1.33.76a9.83,9.83,0,0,0,3.67-3.46c.3-.5.63-1.05.11-1.55a5,5,0,0,0-4.43-1.05C212.24,29.32,212.66,30.48,212.73,31.7ZM206.57,27c4.75-2.56,9.71-3,14.56-.66,3.81,1.83,4.14,5.78,1,9.24-1.26,1.37-1.36,1.95.09,3.3,3.29,3,2.36,8-1.78,10.4C218.13,50.6,215.63,51,213,51.5a12.65949,12.65949,0,0,1-1.48.24c-1.61.2-3.95.65-4.78-.18s-.18-3.12-.18-4.77Z" transform="translate(0 0.00001)"/>
      <path class="cls-14" d="M153,36.05c-.07-1.9-2.56-3.26-4.27-3.38-.86-.06-.42-.22-.76,1.9-.24,1.53-.92,3.51.79,4.52S153,38.07,153,36.05Zm.87,7.87c1.33,1,2.45,1.85,3.51,2.74a1.86,1.86,0,0,1,.66,2.22,2.15,2.15,0,0,1-2.16,1.24,4.4501,4.4501,0,0,1-2.5-.8l-5.56-3.51c-.46.76-.2,1.56-.32,2.28-.35,2.08-1.79,3.58-3.41,3.5s-3-1.62-3.23-3.67c-.73-5.77-.07-11.53,0-17.3A2.51,2.51,0,0,1,143,28.06a20.26008,20.26008,0,0,1,9.41-.47c3.63.78,5.86,3.27,6.5,7.09a8.18282,8.18282,0,0,1-3.8,8.5Z" transform="translate(0 0.00001)"/>
      <path class="cls-15" d="M153,36.05c-.07-1.9-2.56-3.26-4.27-3.38-.86-.06-.42-.22-.76,1.9-.24,1.53-.92,3.51.79,4.52S153,38.07,153,36.05Zm.87,7.87c1.33,1,2.45,1.85,3.51,2.74a1.86,1.86,0,0,1,.66,2.22,2.15,2.15,0,0,1-2.16,1.24,4.4501,4.4501,0,0,1-2.5-.8l-5.56-3.51c-.46.76-.2,1.56-.32,2.28-.35,2.08-1.79,3.58-3.41,3.5s-3-1.62-3.23-3.67c-.73-5.77-.07-11.53,0-17.3A2.51,2.51,0,0,1,143,28.06a20.26008,20.26008,0,0,1,9.41-.47c3.63.78,5.86,3.27,6.5,7.09a8.18282,8.18282,0,0,1-3.8,8.5Z" transform="translate(0 0.00001)"/>
    </g>
  </g>
  <g class="cls-4">
    <g>
      <path class="cls-16" d="M57.1,25.45a1.64983,1.64983,0,0,1-.7,0,1.73983,1.73983,0,0,1-.65-.26,1.78989,1.78989,0,0,1-.5-.49A1.77,1.77,0,0,1,55,23.37a1.93006,1.93006,0,0,1,.26-.65,1.80018,1.80018,0,0,1,.49-.5,1.71011,1.71011,0,0,1,.65-.28,1.83009,1.83009,0,0,1,.7,0,1.9301,1.9301,0,0,1,.65.26,1.79,1.79,0,0,1,.5.49,1.91987,1.91987,0,0,1,.28.64,1.82969,1.82969,0,0,1,0,.7,1.89959,1.89959,0,0,1-.26.66,2.10969,2.10969,0,0,1-.49.5A1.8699,1.8699,0,0,1,57.1,25.45Z" transform="translate(0 0.00001)"/>
      <path class="cls-17" d="M57.1,25.45a1.64983,1.64983,0,0,1-.7,0,1.73983,1.73983,0,0,1-.65-.26,1.78989,1.78989,0,0,1-.5-.49A1.77,1.77,0,0,1,55,23.37a1.93006,1.93006,0,0,1,.26-.65,1.80018,1.80018,0,0,1,.49-.5,1.71011,1.71011,0,0,1,.65-.28,1.83009,1.83009,0,0,1,.7,0,1.9301,1.9301,0,0,1,.65.26,1.79,1.79,0,0,1,.5.49,1.91987,1.91987,0,0,1,.28.64,1.82969,1.82969,0,0,1,0,.7,1.89959,1.89959,0,0,1-.26.66,2.10969,2.10969,0,0,1-.49.5A1.8699,1.8699,0,0,1,57.1,25.45Z" transform="translate(0 0.00001)"/>
      <path class="cls-16" d="M61.41,19a1.82969,1.82969,0,0,1-.7,0,1.73983,1.73983,0,0,1-.65-.26,1.84,1.84,0,0,1-.78-1.13,1.78,1.78,0,0,1,.25-1.35,2,2,0,0,1,.49-.51,1.87012,1.87012,0,0,1,.65-.27,1.83009,1.83009,0,0,1,.7,0,1.74,1.74,0,0,1,.65.26,1.78989,1.78989,0,0,1,.5.49,1.82,1.82,0,0,1,.28,1.34,1.68,1.68,0,0,1-.26.65,1.75993,1.75993,0,0,1-.48.5A1.78,1.78,0,0,1,61.41,19Z" transform="translate(0 0.00001)"/>
      <path class="cls-17" d="M61.41,19a1.82969,1.82969,0,0,1-.7,0,1.73983,1.73983,0,0,1-.65-.26,1.84,1.84,0,0,1-.78-1.13,1.78,1.78,0,0,1,.25-1.35,2,2,0,0,1,.49-.51,1.87012,1.87012,0,0,1,.65-.27,1.83009,1.83009,0,0,1,.7,0,1.74,1.74,0,0,1,.65.26,1.78989,1.78989,0,0,1,.5.49,1.82,1.82,0,0,1,.28,1.34,1.68,1.68,0,0,1-.26.65,1.75993,1.75993,0,0,1-.48.5A1.78,1.78,0,0,1,61.41,19Z" transform="translate(0 0.00001)"/>
      <path class="cls-16" d="M67.16,26.89a1.83,1.83,0,0,1-.7,0,1.68,1.68,0,0,1-.65-.26,1.82976,1.82976,0,0,1-.51-.49,1.89991,1.89991,0,0,1-.27-.64,1.64983,1.64983,0,0,1,0-.7,1.68,1.68,0,0,1,.26-.65,1.74,1.74,0,0,1,1.13-.78,1.6501,1.6501,0,0,1,.7,0,1.74,1.74,0,0,1,.65.26,1.75092,1.75092,0,0,1,.78,1.83,1.73983,1.73983,0,0,1-.26.65,1.66978,1.66978,0,0,1-.49.5A1.74,1.74,0,0,1,67.16,26.89Z" transform="translate(0 0.00001)"/>
      <path class="cls-17" d="M67.16,26.89a1.83,1.83,0,0,1-.7,0,1.68,1.68,0,0,1-.65-.26,1.82976,1.82976,0,0,1-.51-.49,1.89991,1.89991,0,0,1-.27-.64,1.64983,1.64983,0,0,1,0-.7,1.68,1.68,0,0,1,.26-.65,1.74,1.74,0,0,1,1.13-.78,1.6501,1.6501,0,0,1,.7,0,1.74,1.74,0,0,1,.65.26,1.75092,1.75092,0,0,1,.78,1.83,1.73983,1.73983,0,0,1-.26.65,1.66978,1.66978,0,0,1-.49.5A1.74,1.74,0,0,1,67.16,26.89Z" transform="translate(0 0.00001)"/>
      <path class="cls-16" d="M73.62,16.84a1.82964,1.82964,0,0,1-.7,0,1.92982,1.92982,0,0,1-.65-.26,1.8,1.8,0,0,1-.5-.49,1.70987,1.70987,0,0,1-.28-.65,1.82969,1.82969,0,0,1,0-.7,1.74,1.74,0,0,1,.26-.65,1.79015,1.79015,0,0,1,.49-.5,1.92023,1.92023,0,0,1,.64-.28,1.78,1.78,0,0,1,1.35.25,2.00022,2.00022,0,0,1,.51.49,1.87,1.87,0,0,1,.27.65,1.82969,1.82969,0,0,1,0,.7,1.73983,1.73983,0,0,1-.26.65,1.78989,1.78989,0,0,1-.49.5A1.84,1.84,0,0,1,73.62,16.84Z" transform="translate(0 0.00001)"/>
      <path class="cls-17" d="M73.62,16.84a1.82964,1.82964,0,0,1-.7,0,1.92982,1.92982,0,0,1-.65-.26,1.8,1.8,0,0,1-.5-.49,1.70987,1.70987,0,0,1-.28-.65,1.82969,1.82969,0,0,1,0-.7,1.74,1.74,0,0,1,.26-.65,1.79015,1.79015,0,0,1,.49-.5,1.92023,1.92023,0,0,1,.64-.28,1.78,1.78,0,0,1,1.35.25,2.00022,2.00022,0,0,1,.51.49,1.87,1.87,0,0,1,.27.65,1.82969,1.82969,0,0,1,0,.7,1.73983,1.73983,0,0,1-.26.65,1.78989,1.78989,0,0,1-.49.5A1.84,1.84,0,0,1,73.62,16.84Z" transform="translate(0 0.00001)"/>
      <path class="cls-16" d="M80.08,24a1.82969,1.82969,0,0,1-.7,0,1.92985,1.92985,0,0,1-.65-.26,1.8,1.8,0,0,1-.5-.49,1.71,1.71,0,0,1-.28-.65,1.83009,1.83009,0,0,1,0-.7,1.78006,1.78006,0,0,1,.75-1.15,1.7,1.7,0,0,1,.65-.27,1.6501,1.6501,0,0,1,.7,0,1.74,1.74,0,0,1,.65.26,1.89991,1.89991,0,0,1,.5.48,1.99961,1.99961,0,0,1,.28.65,1.82969,1.82969,0,0,1,0,.7,1.73983,1.73983,0,0,1-.26.65,1.63994,1.63994,0,0,1-.48.5A1.71006,1.71006,0,0,1,80.08,24Z" transform="translate(0 0.00001)"/>
      <path class="cls-17" d="M80.08,24a1.82969,1.82969,0,0,1-.7,0,1.92985,1.92985,0,0,1-.65-.26,1.8,1.8,0,0,1-.5-.49,1.71,1.71,0,0,1-.28-.65,1.83009,1.83009,0,0,1,0-.7,1.78006,1.78006,0,0,1,.75-1.15,1.7,1.7,0,0,1,.65-.27,1.6501,1.6501,0,0,1,.7,0,1.74,1.74,0,0,1,.65.26,1.89991,1.89991,0,0,1,.5.48,1.99961,1.99961,0,0,1,.28.65,1.82969,1.82969,0,0,1,0,.7,1.73983,1.73983,0,0,1-.26.65,1.63994,1.63994,0,0,1-.48.5A1.71006,1.71006,0,0,1,80.08,24Z" transform="translate(0 0.00001)"/>
      <path class="cls-16" d="M87.08,16.87a1.86994,1.86994,0,0,1-1.32-.39,1.80828,1.80828,0,0,1-.66-1.21A1.82,1.82,0,0,1,85.5,14a1.79,1.79,0,0,1,.5-.5,2.00019,2.00019,0,0,1,.67-.21,1.84025,1.84025,0,0,1,.7.07,2.00017,2.00017,0,0,1,.62.32,1.8,1.8,0,0,1,.45.54,1.9998,1.9998,0,0,1,.21.67,1.86994,1.86994,0,0,1-.39,1.32,1.83319,1.83319,0,0,1-1.18.66Z" transform="translate(0 0.00001)"/>
      <path class="cls-17" d="M87.08,16.87a1.86994,1.86994,0,0,1-1.32-.39,1.80828,1.80828,0,0,1-.66-1.21A1.82,1.82,0,0,1,85.5,14a1.79,1.79,0,0,1,.5-.5,2.00019,2.00019,0,0,1,.67-.21,1.84025,1.84025,0,0,1,.7.07,2.00017,2.00017,0,0,1,.62.32,1.8,1.8,0,0,1,.45.54,1.9998,1.9998,0,0,1,.21.67,1.86994,1.86994,0,0,1-.39,1.32,1.83319,1.83319,0,0,1-1.18.66Z" transform="translate(0 0.00001)"/>
      <path class="cls-16" d="M90.85,24a1.82969,1.82969,0,0,1-.7,0A1.78,1.78,0,0,1,89,23.28a1.89009,1.89009,0,0,1-.28-.65,1.84107,1.84107,0,0,1,.74-1.85,1.7,1.7,0,0,1,.65-.27,1.65015,1.65015,0,0,1,.7,0,1.74023,1.74023,0,0,1,.65.26,1.76,1.76,0,0,1,.5.48,1.78,1.78,0,0,1,.28.65,1.83009,1.83009,0,0,1,0,.7,1.9301,1.9301,0,0,1-.26.65,1.8,1.8,0,0,1-.49.5A1.70987,1.70987,0,0,1,90.85,24Z" transform="translate(0 0.00001)"/>
      <path class="cls-17" d="M90.85,24a1.82969,1.82969,0,0,1-.7,0A1.78,1.78,0,0,1,89,23.28a1.89009,1.89009,0,0,1-.28-.65,1.84107,1.84107,0,0,1,.74-1.85,1.7,1.7,0,0,1,.65-.27,1.65015,1.65015,0,0,1,.7,0,1.74023,1.74023,0,0,1,.65.26,1.76,1.76,0,0,1,.5.48,1.71,1.71,0,0,1,.28.65,1.83009,1.83009,0,0,1,0,.7,1.9301,1.9301,0,0,1-.26.65,1.8,1.8,0,0,1-.49.5A1.70987,1.70987,0,0,1,90.85,24Z" transform="translate(0 0.00001)"/>
      <path class="cls-16" d="M96.6,15.4a1.83009,1.83009,0,0,1-.7,0,1.78,1.78,0,0,1-1.15-.75,1.74,1.74,0,0,1-.28-.64,1.83009,1.83009,0,0,1,0-.7,1.68017,1.68017,0,0,1,.26-.65,1.79,1.79,0,0,1,1.83-.79,1.68,1.68,0,0,1,.65.26A1.79,1.79,0,0,1,98,14,1.82,1.82,0,0,1,96.6,15.4Z" transform="translate(0 0.00001)"/>
      <path class="cls-17" d="M96.6,15.4a1.83009,1.83009,0,0,1-.7,0,1.78,1.78,0,0,1-1.15-.75,1.74,1.74,0,0,1-.28-.64,1.83009,1.83009,0,0,1,0-.7,1.68017,1.68017,0,0,1,.26-.65,1.79,1.79,0,0,1,1.83-.79,1.68,1.68,0,0,1,.65.26A1.79,1.79,0,0,1,98,14,1.82,1.82,0,0,1,96.6,15.4Z" transform="translate(0 0.00001)"/>
    </g>
  </g>
  <g class="cls-2">
    <g class="cls-4">
      <g class="cls-18">
        <g class="cls-19">
          <g>
            <path d="M116.33.37h.61a.34.34,0,0,0,.28,0h.14a3.88,3.88,0,0,1,1.49.36,4.7,4.7,0,0,1,2.8,3.63,4.72,4.72,0,0,1-1,3.85,4.8,4.8,0,0,1-3.2,1.79,4.65,4.65,0,0,1-2.77-.49c-.19-.1-.28,0-.4.1s0,.22,0,.32a.9.9,0,0,1,.2.61V14.2a.91009.91009,0,0,1-.21.63c-.08.1-.14.19,0,.3s.2.22.38.12a4.83,4.83,0,0,1,6.8,2.75,4.91018,4.91018,0,0,1,.22,2.08,4.63,4.63,0,0,1-2.53,3.83,3.99989,3.99989,0,0,1-1.92.53,4.90985,4.90985,0,0,1-2.36-.4,4.82,4.82,0,0,1-2.75-3.46,4.63,4.63,0,0,1,.38-3.06c.14-.3.14-.3-.09-.53l-1.51-1.51a.54.54,0,0,0-.46-.19h-1.55a.5.5,0,0,0-.41.17c-.52.53-1,1-1.58,1.57a.32.32,0,0,0-.07.43,4.35,4.35,0,0,1,.52,2.26,5.0803,5.0803,0,0,1-.26,1.44,4.63015,4.63015,0,0,1-.66,1.29,4.99994,4.99994,0,0,1-2.29,1.74,5.4,5.4,0,0,1-2.15.23,4.81,4.81,0,0,1-4.22-3.58,2.68972,2.68972,0,0,1-.07-.75v-.23a1.77966,1.77966,0,0,0,0-.46v-.28A3.88012,3.88012,0,0,1,98,17.66a4.79,4.79,0,0,1,3.54-2.85,4.55,4.55,0,0,1,3,.38c.31.15.31.15.56-.1l.11-.11c.12-.11.11-.19,0-.29s-.52-.4-.79-.58a.86.86,0,0,1-.39-.77v-2a.7.7,0,0,1,.32-.64l.85-.63c.14-.1.16-.2,0-.31h0c-.39-.39-.3-.33-.72-.14a4.84,4.84,0,0,1-5.4-1,4.92,4.92,0,0,1-1.3-2.21c-.07-.24,0-.48-.1-.71V5.39a1.77966,1.77966,0,0,0,0-.46V4.7a4,4,0,0,1,1-2.62A4.61006,4.61006,0,0,1,101.2.48c.28-.07.56-.06.83-.11h.09a.47.47,0,0,0,.33,0h.61a4.15019,4.15019,0,0,1,1.39.37,4.74,4.74,0,0,1,2.7,3.14,4.62,4.62,0,0,1-.33,3.44.32.32,0,0,0,.07.43c.53.52,1,1.05,1.57,1.58a.51.51,0,0,0,.42.17h1.59a.5.5,0,0,0,.4-.16c.53-.54,1.06-1.08,1.6-1.61a.28.28,0,0,0,.06-.39A4.30007,4.30007,0,0,1,112,5.06,4.82,4.82,0,0,1,114.43,1,4.28014,4.28014,0,0,1,116.33.37Z" transform="translate(0 0.00001)"/>
            <path class="cls-20" d="M116.33.37c-.34.12-.71.15-1,.27a4.8,4.8,0,0,0-3.18,5,4.58,4.58,0,0,0,.53,1.73.22.22,0,0,1,0,.3c-.59.58-1.18,1.16-1.76,1.75a.33.33,0,0,1-.29.12H108.8a.34.34,0,0,1-.29-.12c-.58-.59-1.16-1.17-1.75-1.75a.21.21,0,0,1-.056-.29166L106.71,7.37A4.78,4.78,0,0,0,103.9.59a7.99871,7.99871,0,0,1-.84-.22Z" transform="translate(0 0.00001)"/>
            <path class="cls-20" d="M102,.37c-.35.09-.7.13-1,.24a4.78,4.78,0,0,0-3.28,4.07h0V.52c0-.14,0-.16.17-.16Z" transform="translate(0 0.00001)"/>
            <path class="cls-21" d="M97.67,19.36c.09.15,0,.32,0,.47h0Z" transform="translate(0 0.00001)"/>
            <path class="cls-21" d="M97.71,4.92a1.482,1.482,0,0,1,0,.47V4.92Z" transform="translate(0 0.00001)"/>
            <path class="cls-22" d="M102.45.37a.24.24,0,0,1-.33,0Z" transform="translate(0 0.00001)"/>
            <path class="cls-22" d="M117.22.37a.2.2,0,0,1-.28,0Z" transform="translate(0 0.00001)"/>
            <path class="cls-23" d="M97.71,4.92h0V4.69h0Z" transform="translate(0 0.00001)"/>
            <path class="cls-23" d="M97.67,19.83h0v.24h0Z" transform="translate(0 0.00001)"/>
            <path class="cls-24" d="M116.86,1.2a4.13023,4.13023,0,0,1,.78.08,4.30052,4.30052,0,0,1,.75.23,3.83034,3.83034,0,0,1,.69.37,4.59072,4.59072,0,0,1,.6.49,4.09027,4.09027,0,0,1,.49.61,4.00012,4.00012,0,0,1,.6,1.44,4.10958,4.10958,0,0,1,.07.78,4,4,0,1,1-4-4Z" transform="translate(0 0.00001)"/>
            <path class="cls-24" d="M98.5,19.53a4,4,0,1,1,4,4A4,4,0,0,1,98.5,19.53Z" transform="translate(0 0.00001)"/>
            <path class="cls-24" d="M102.47,1.2a4.13023,4.13023,0,0,1,.78.08,3.81019,3.81019,0,0,1,.75.22,4.58054,4.58054,0,0,1,.69.37A4.15,4.15,0,0,1,105.8,3a4.58018,4.58018,0,0,1,.37.69,3.83083,3.83083,0,0,1,.23.75,3.94025,3.94025,0,0,1,.08.77,4,4,0,1,1-7.91-.75,3.80951,3.80951,0,0,1,.22-.75A3.26023,3.26023,0,0,1,99.16,3a3.64066,3.64066,0,0,1,.49-.61,4.16,4.16,0,0,1,.61-.5,3.2606,3.2606,0,0,1,.69-.37,4.00089,4.00089,0,0,1,.74-.23A4.13023,4.13023,0,0,1,102.47,1.2Z" transform="translate(0 0.00001)"/>
            <path class="cls-24" d="M116.85,23.55a4,4,0,1,1,4.00031-3.99968L120.85,19.6A4,4,0,0,1,116.85,23.55Z" transform="translate(0 0.00001)"/>
            <path class="cls-25" d="M112.05,11.58v2.64c0,.14,0,.16-.16.16h-5.56a.39991.39991,0,0,1-.23-.08c-.38-.29-.75-.57-1.13-.84a.23.23,0,0,1-.1-.22v-.77a.73.73,0,0,1,.32-.33c1.05-.77.59-.62,1.87-.63h4.59C111.8,11.51,111.94,11.48,112.05,11.58Z" transform="translate(0 0.00001)"/>
            <path class="cls-26" d="M112.05,11.58h-5.73a.62.62,0,0,0-.45.15c-.32.26-.65.49-1,.74v-1a.26.26,0,0,1,.12-.23l1.07-.8a.52006.52006,0,0,1,.32-.11h5.46c.18,0,.22.06.21.23C112.05,10.92,112.06,11.25,112.05,11.58Z" transform="translate(0 0.00001)"/>
            <path class="cls-27" d="M112.85,16.17l-.95-1h1.15c.19,0,.29.24.42.38s0,.1-.06.13a3.41949,3.41949,0,0,0-.42.43S112.92,16.2,112.85,16.17Z" transform="translate(0 0.00001)"/>
            <path class="cls-27" d="M113.47,9.19a.79.79,0,0,1-.82.39,5.9228,5.9228,0,0,0-.73,0l.93-1c.07,0,.1,0,.14.06a4.15894,4.15894,0,0,0,.42.42S113.49,9.13,113.47,9.19Z" transform="translate(0 0.00001)"/>
            <path class="cls-27" d="M105.87,15.56a.79.79,0,0,1,.82-.39,5.9269,5.9269,0,0,0,.73,0l-.94,1c-.06,0-.1,0-.13-.06a4.16205,4.16205,0,0,0-.42-.42S105.84,15.62,105.87,15.56Z" transform="translate(0 0.00001)"/>
            <path class="cls-27" d="M106.48,8.58l.94,1h-1.13c-.19,0-.29-.24-.42-.38s0-.1.06-.13a3.42026,3.42026,0,0,0,.42-.43S106.42,8.55,106.48,8.58Z" transform="translate(0 0.00001)"/>
            <path class="cls-28" d="M113.66,11.24a1.55006,1.55006,0,0,0-.8,0v-.75c0-.05,0-.11.08-.11h.58a.12923.12923,0,0,1,.14.16Z" transform="translate(0 0.00001)"/>
            <path class="cls-28" d="M112.86,13.51a1.45,1.45,0,0,0,.8,0v.69a.14.14,0,0,1-.11.16,2.21984,2.21984,0,0,1-.63,0c-.07,0-.06-.08-.06-.13Z" transform="translate(0 0.00001)"/>
            <path class="cls-29" d="M113.65,12.37a.35.35,0,0,1-.1.27.34.34,0,0,1-.27.12.35.35,0,0,1-.28-.09.4.4,0,0,1,0-.56.34.34,0,0,1,.27-.12A.38.38,0,0,1,113.65,12.37Z" transform="translate(0 0.00001)"/>
            <path class="cls-30" d="M113.47,9.19a5.99824,5.99824,0,0,1-.62-.61l.29-.31.63.64Z" transform="translate(0 0.00001)"/>
            <path class="cls-30" d="M106.48,8.58a5.84911,5.84911,0,0,1-.61.61l-.33-.31a7.61929,7.61929,0,0,0,.63-.64Z" transform="translate(0 0.00001)"/>
            <path class="cls-30" d="M105.87,15.56a5.85008,5.85008,0,0,1,.61.61l-.28.32-.64-.64Z" transform="translate(0 0.00001)"/>
            <path class="cls-30" d="M112.85,16.17a7.15161,7.15161,0,0,1,.62-.61l.3.28-.64.64Z" transform="translate(0 0.00001)"/>
            <path d="M116.85,3.6a1.54017,1.54017,0,0,1,.61.12,1.67,1.67,0,0,1,.52.34,1.62,1.62,0,0,1,0,2.26,1.50989,1.50989,0,0,1-.52.34,1.58988,1.58988,0,0,1-.61.13,1.62,1.62,0,0,1-1.59-1.6,1.58013,1.58013,0,0,1,.12-.61,1.54033,1.54033,0,0,1,.35-.52,1.67,1.67,0,0,1,.52-.34A1.53019,1.53019,0,0,1,116.85,3.6Z" transform="translate(0 0.00001)"/>
            <path d="M116.85,2.39c0-.43,0-.43.42-.36A3.18,3.18,0,0,1,120,4.77c.07.42.07.42-.36.42s-.38,0-.44-.37a2.41,2.41,0,0,0-2.18-2c-.14,0-.21,0-.19-.19A1.76961,1.76961,0,0,0,116.85,2.39Z" transform="translate(0 0.00001)"/>
            <path d="M114.07,5.19h.09c.22,0,.29,0,.32.28a2.37,2.37,0,0,0,2.19,2.11c.14,0,.19,0,.18.19a3.53042,3.53042,0,0,0,0,.46c0,.14,0,.15-.16.15a3.23,3.23,0,0,1-3-3c0-.12,0-.18.15-.17Z" transform="translate(0 0.00001)"/>
            <path d="M102.48,21.15a1.53983,1.53983,0,0,1-.6-.13,1.60007,1.60007,0,0,1-.51-.35,1.53992,1.53992,0,0,1-.33-.51,1.61984,1.61984,0,0,1-.12-.61,1.58,1.58,0,0,1,.46-1.11,1.46,1.46,0,0,1,.5-.35,1.85009,1.85009,0,0,1,.61-.13,1.62,1.62,0,0,1,1.59,1.6,1.57991,1.57991,0,0,1-.12.61,1.64965,1.64965,0,0,1-.35.51,1.5399,1.5399,0,0,1-.52.35A1.57991,1.57991,0,0,1,102.48,21.15Z" transform="translate(0 0.00001)"/>
            <path d="M99.69,19.55c.37,0,.37,0,.42.37a2.6298,2.6298,0,0,0,.26.76,2.3198,2.3198,0,0,0,.49.63,2.55989,2.55989,0,0,0,.68.44,2.48991,2.48991,0,0,0,.77.19c.13,0,.19,0,.18.18s0,.22,0,.33c0,.3,0,.3-.3.28a3.2,3.2,0,0,1-2.88-2.86C99.28,19.55,99.28,19.55,99.69,19.55Z" transform="translate(0 0.00001)"/>
            <path d="M105.28,19.55c-.38,0-.38,0-.43-.31a2.4,2.4,0,0,0-2.18-2.07c-.15,0-.2-.06-.18-.2v-.1c0-.54,0-.54.52-.46a3.21,3.21,0,0,1,2.66,3c0,.14,0,.18-.16.17Z" transform="translate(0 0.00001)"/>
            <path d="M102.48,3.6a1.58009,1.58009,0,0,1,.61.12,1.66987,1.66987,0,0,1,.52.34,1.7,1.7,0,0,1,.35.52,1.58,1.58,0,0,1,.12.61,1.62,1.62,0,0,1-1.59,1.6,1.58989,1.58989,0,0,1-.61-.13A1.52,1.52,0,0,1,101,5.8a1.5736,1.5736,0,0,1,1.46-2.2Z" transform="translate(0 0.00001)"/>
            <path d="M102.49,8c0,.42,0,.42-.43.37A3.2,3.2,0,0,1,99.3,5.4c0-.16,0-.22.2-.21a2.33157,2.33157,0,0,1,.53,0c.14.05.08.32.11.49a2.43,2.43,0,0,0,2,1.84C102.49,7.61,102.49,7.61,102.49,8Z" transform="translate(0 0.00001)"/>
            <path d="M105.27,5.19h0c-.26.06-.34-.06-.38-.32a2.34,2.34,0,0,0-2.2-2.06c-.12,0-.16-.05-.15-.17a2.29,2.29,0,0,0,0-.37c0-.25.07-.28.28-.26a3.23,3.23,0,0,1,2.87,2.69v.07C105.69,5.19,105.69,5.19,105.27,5.19Z" transform="translate(0 0.00001)"/>
            <path d="M118.44,19.56a1.54,1.54,0,0,1-.12.61,1.51008,1.51008,0,0,1-.34.52,1.62,1.62,0,0,1-1.13.46,1.59494,1.59494,0,1,1,1.13-2.71,1.57024,1.57024,0,0,1,.34.51A1.62006,1.62006,0,0,1,118.44,19.56Z" transform="translate(0 0.00001)"/>
            <path d="M116.85,22.35c0,.45,0,.45-.45.37a3.2,3.2,0,0,1-2.73-2.89c0-.19,0-.31.24-.28a2.69381,2.69381,0,0,0,.5,0c.12,0,.06.3.1.46a2.4,2.4,0,0,0,2.07,1.88c.23,0,.31.08.27.3Z" transform="translate(0 0.00001)"/>
            <path d="M119.65,19.55c-.37,0-.37,0-.43-.35a2.42,2.42,0,0,0-2.18-2c-.16,0-.21-.07-.19-.22v-.09c0-.52,0-.52.5-.45A3.22,3.22,0,0,1,120,19.26c0,.29,0,.29-.27.29Z" transform="translate(0 0.00001)"/>
            <path class="cls-31" d="M109.48,13.57h-1.62c-.14,0-.19,0-.19-.19,0-.61,0-.61.6-.61h2.79c.16,0,.21,0,.21.2,0,.59,0,.59-.6.59Z" transform="translate(0 0.00001)"/>
            <path class="cls-32" d="M106.87,13.17c0,.41,0,.41-.4.41s-.4,0-.4-.4,0-.4.41-.4S106.87,12.78,106.87,13.17Z" transform="translate(0 0.00001)"/>
            <path class="cls-27" d="M116.36,4.58a.78.78,0,0,1,1.09887.09641q.0217.02589.04113.05359a.78.78,0,0,1-.28,1.16c-.12-.08-.15-.21-.21-.33A4.91075,4.91075,0,0,0,116.36,4.58Z" transform="translate(0 0.00001)"/>
            <path class="cls-33" d="M116.36,4.58c.24,0,.29.29.41.45a3.35975,3.35975,0,0,1,.45.86.79.79,0,0,1-1-.26A.77.77,0,0,1,116.36,4.58Z" transform="translate(0 0.00001)"/>
            <path class="cls-27" d="M102,18.93a.79.79,0,1,1,.82,1.33A13.23347,13.23347,0,0,0,102,18.93Z" transform="translate(0 0.00001)"/>
            <path class="cls-34" d="M102,18.93a3.30005,3.30005,0,0,1,.82,1.33.78123.78123,0,1,1-.82-1.33Z" transform="translate(0 0.00001)"/>
            <path class="cls-27" d="M102,4.59a.73.73,0,0,1,.84-.12.7.7,0,0,1,.46.71.73.73,0,0,1-.46.72c-.16-.25-.26-.53-.43-.78S102.13,4.76,102,4.59Z" transform="translate(0 0.00001)"/>
            <path class="cls-34" d="M102,4.59c.25.08.33.32.45.5a1.9101,1.9101,0,0,1,.39.81A.78.78,0,0,1,102,4.59Z" transform="translate(0 0.00001)"/>
            <path class="cls-27" d="M116.37,18.94a.79012.79012,0,0,1,1.16.2.77.77,0,0,1-.31,1.11c-.06,0-.08-.06-.11-.11a4.31022,4.31022,0,0,0-.7-1.12A.20006.20006,0,0,1,116.37,18.94Z" transform="translate(0 0.00001)"/>
            <path class="cls-34" d="M116.37,18.94a3.45,3.45,0,0,1,.85,1.31.7808.7808,0,0,1-.85-1.31Z" transform="translate(0 0.00001)"/>
          </g>
        </g>
      </g>
    </g>
  </g>
</svg>
